<svg xmlns="http://www.w3.org/2000/svg" viewBox="0 0 200 220"><title>Kishore Krishna</title><style>@keyframes b{0%,100%{transform:translateY(0)}50%{transform:translateY(-5px)}}@keyframes br{0%,100%{transform:scale(1,1)}50%{transform:scale(1.015,.985)}}@keyframes bl{0%,93%,100%{transform:scaleY(1)}96%{transform:scaleY(.08)}}@keyframes tw{0%,100%{opacity:.25;transform:scale(.6) rotate(0deg)}50%{opacity:1;transform:scale(1) rotate(20deg)}}@keyframes wv{0%,100%{transform:rotate(0deg)}50%{transform:rotate(-16deg)}}@keyframes rk{0%,100%{transform:rotate(-4deg)}50%{transform:rotate(4deg)}}@keyframes sw{0%,100%{transform:rotate(-2deg)}50%{transform:rotate(2deg)}}@keyframes nt{0%{opacity:0;transform:translate(0,6px)}30%{opacity:1}100%{opacity:0;transform:translate(8px,-18px)}}@keyframes fl{0%,100%{transform:scale(1,1) rotate(0deg)}30%{transform:scale(.94,1.06) rotate(-3deg)}60%{transform:scale(1.04,.95) rotate(2deg)}}.a-bob{animation:b 3.4s ease-in-out infinite}.a-breathe{animation:br 4s ease-in-out infinite;transform-box:fill-box;transform-origin:50% 100%}.a-blink{animation:bl 4.2s infinite;transform-box:fill-box;transform-origin:center}.a-twinkle{animation:tw 1.8s ease-in-out infinite;transform-box:fill-box;transform-origin:center}.a-wave{animation:wv 1s ease-in-out infinite}.a-rock{animation:rk 2.8s ease-in-out infinite;transform-box:fill-box;transform-origin:50% 100%}.a-sway{animation:sw 2.4s ease-in-out infinite;transform-box:fill-box;transform-origin:50% 100%}.a-note{animation:nt 1.8s ease-out infinite}.a-flicker{animation:fl .9s ease-in-out infinite}@media (prefers-reduced-motion: reduce){*{animation:none!important}}</style>
<ellipse cx="100" cy="211" rx="60" ry="7" fill="#1E1B3A" opacity="0.08"></ellipse>
<g class="a-bob">
<path d="M12 32 C18 14 34 4 48 6 C62 4 76 12 84 32 Z" fill="#7FBF6A" stroke="#4E8F3E" style="stroke-width: 2.5px; stroke-linejoin: round"></path>
<circle cx="32" cy="20" r="5" fill="#4E8F3E"></circle>
<circle cx="58" cy="16" r="5" fill="#4E8F3E"></circle>
<circle cx="44" cy="24" r="3" fill="#FFFFFF"></circle>
</g>
<rect x="80" y="170" width="14" height="32" rx="7" fill="#6FA8F5" stroke="#3F6FC2" style="stroke-width: 2.5px"></rect>
<rect x="106" y="170" width="14" height="32" rx="7" fill="#6FA8F5" stroke="#3F6FC2" style="stroke-width: 2.5px"></rect>
<ellipse cx="87" cy="205" rx="10" ry="6" fill="#6FA8F5" stroke="#3F6FC2" style="stroke-width: 2.5px"></ellipse>
<ellipse cx="113" cy="205" rx="10" ry="6" fill="#6FA8F5" stroke="#3F6FC2" style="stroke-width: 2.5px"></ellipse>
<path d="M82 140 C80 108 88 94 100 94 C112 94 120 108 118 140 Z" fill="#6FA8F5" stroke="#3F6FC2" style="stroke-width: 3px"></path>
<path d="M78 136 L122 136 L128 176 L72 176 Z" fill="#FFC93C" stroke="#D99A12" style="stroke-width: 3px; stroke-linejoin: round"></path>
<rect x="76" y="132" width="48" height="9" rx="4.5" fill="#F2A007" stroke="#C98100" style="stroke-width: 2px"></rect>
<path d="M88 98 Q100 122 112 98" stroke="#F48BAA" fill="none" style="stroke-width: 4.5px; stroke-linecap: round"></path>
<path d="M86 102 C72 82 58 62 50 38" stroke="#6FA8F5" fill="none" style="stroke-width: 12px; stroke-linecap: round"></path>
<circle cx="48" cy="34" r="6.5" fill="#6FA8F5" stroke="#3F6FC2" style="stroke-width: 2.5px"></circle>
<path d="M116 104 C130 114 130 126 120 134" stroke="#6FA8F5" fill="none" style="stroke-width: 12px; stroke-linecap: round"></path>
<g transform="translate(100 60) scale(0.64)">
<circle cx="0" cy="-6" r="54" fill="#1E1B3A"></circle>
<circle cx="-44" cy="4" r="9" fill="#6FA8F5" stroke="#3F6FC2" style="stroke-width: 3.5px"></circle>
<circle cx="44" cy="4" r="9" fill="#6FA8F5" stroke="#3F6FC2" style="stroke-width: 3.5px"></circle>
<circle cx="-45" cy="17" r="4.5" fill="#F2B705"></circle>
<circle cx="45" cy="17" r="4.5" fill="#F2B705"></circle>
<circle cx="0" cy="0" r="44" fill="#6FA8F5" stroke="#3F6FC2" style="stroke-width: 4px"></circle>
<path d="M-46 -2 C-48 -40 -22 -52 0 -52 C22 -52 48 -40 46 -2 C36 -24 20 -30 0 -30 C-20 -30 -36 -24 -46 -2 Z" fill="#1E1B3A"></path>
<path d="M-42 -22 Q0 -40 42 -22" stroke="#F2B705" fill="none" style="stroke-width: 8px; stroke-linecap: round"></path>
<circle cx="0" cy="-32" r="5" fill="#E23D3D" stroke="#F2B705" style="stroke-width: 2.5px"></circle>
<g transform="rotate(20 24 -48)">
<ellipse cx="24" cy="-62" rx="11" ry="22" fill="#2FA35A" stroke="#1F7A3F" style="stroke-width: 2.5px"></ellipse>
<ellipse cx="24" cy="-66" rx="7" ry="9" fill="#F2B705"></ellipse>
<ellipse cx="24" cy="-66" rx="4" ry="6" fill="#1F5FBF"></ellipse>
</g>
<path d="M-5 -22 Q0 -8 5 -22" stroke="#FFFFFF" fill="none" style="stroke-width: 4px; stroke-linecap: round"></path>
<g class="a-blink">
<ellipse cx="-16" cy="4" rx="7" ry="9" fill="#1B1530"></ellipse>
<ellipse cx="16" cy="4" rx="7" ry="9" fill="#1B1530"></ellipse>
</g>
<circle cx="-13" cy="0" r="3" fill="#FFFFFF"></circle>
<circle cx="19" cy="0" r="3" fill="#FFFFFF"></circle>
<ellipse cx="-28" cy="18" rx="7" ry="4.5" fill="#F48FB1" opacity="0.45"></ellipse>
<ellipse cx="28" cy="18" rx="7" ry="4.5" fill="#F48FB1" opacity="0.45"></ellipse>
<path d="M-10 21 Q0 31 10 21" stroke="#8E2A40" fill="none" style="stroke-width: 4px; stroke-linecap: round"></path>
</g>
</svg>
